<svg width="85" height="108" viewBox="0 0 85 108" fill="none" xmlns="http://www.w3.org/2000/svg">
<g clip-path="url(#clip0_2_3)">
<path d="M42.9555 102.604C42.9555 105.375 15.0668 105.375 15.0668 102.604C15.0668 99.8333 21.3095 97.5948 29.0112 97.5948C36.7128 97.5948 42.9555 99.8302 42.9555 102.604Z" fill="#64AF45"/>
<path d="M47.3182 65.6513C50.0639 66.5999 52.6171 68.1215 55.0716 69.6493C57.7186 71.2961 60.2984 73.0572 62.8092 74.9059C63.8486 75.6729 64.8802 76.4525 65.8805 77.2712C66.4832 77.7628 67.1062 78.2652 67.5116 78.9431C68.108 79.9355 68.227 81.1878 68.335 82.3087C68.4506 83.728 68.4903 85.1524 68.454 86.5759C68.3992 91.6024 68.0689 96.6258 67.8403 101.646C67.784 102.872 66.7994 104.054 65.4923 103.994C64.2681 103.939 63.0832 102.961 63.1442 101.646C63.3477 97.1972 63.6138 92.7483 63.725 88.2963C63.7657 86.7434 63.7907 85.189 63.725 83.6361C63.7031 83.1055 63.6467 82.5779 63.6107 82.0488C63.5778 81.5698 63.7156 82.6421 63.6326 82.1897C63.6123 82.0817 63.5982 81.9721 63.5763 81.8641C63.5356 81.6449 63.4667 81.4367 63.4197 81.2207C63.3133 80.7354 63.7516 81.789 63.4557 81.3131C63.224 80.9405 63.9645 81.8062 63.6123 81.515C63.3931 81.3366 63.1959 81.1237 62.9861 80.9389C62.6574 80.6587 62.3208 80.3879 61.9811 80.1202C61.8825 80.042 61.7839 79.9543 61.679 79.8839C62.1893 80.2251 61.9514 80.0936 61.8356 80.0028L61.02 79.3845C58.6719 77.6281 56.2602 75.9584 53.7848 74.3752C52.3588 73.4642 50.9139 72.5828 49.4315 71.7673C48.7615 71.3994 48.0853 71.0441 47.3965 70.7169C47.2635 70.6543 47.1288 70.5917 46.9927 70.5306C46.8032 70.4445 46.3336 70.1064 46.9113 70.4883C46.6827 70.3318 46.3414 70.2645 46.0832 70.1753C44.8856 69.762 44.092 68.566 44.4442 67.2871C44.7573 66.1224 46.1286 65.2302 47.3323 65.6466L47.3182 65.6513Z" fill="#64AF45"/>
<path d="M42.5924 61.982C41.5082 60.6106 40.2797 59.36 38.9278 58.2516C38.8762 58.2078 38.5725 57.973 38.8809 58.2094C38.74 58.1013 38.5975 57.998 38.4551 57.8963C38.2109 57.7199 37.9625 57.5493 37.71 57.3844C37.1736 57.0306 36.6199 56.7045 36.0491 56.406C35.6358 56.1884 35.2147 55.9865 34.7874 55.7955C34.6747 55.7454 34.1065 55.5153 34.5479 55.6891C34.9893 55.8628 34.3835 55.6609 34.3084 55.592C34.7968 56.0413 36.0882 55.4026 36.4858 55.0066C36.7833 54.7123 36.8741 54.5103 37.0259 54.0783C36.8803 54.4915 37.0368 54.2066 37.0368 53.82C37.0368 56.3105 37.2748 58.7698 37.5613 61.2462C37.6656 62.199 37.7809 63.1518 37.9072 64.1046C37.9714 64.6165 38.0387 65.1284 38.1044 65.6419C38.1389 65.9049 38.1749 66.1694 38.2093 66.4324L38.2516 66.7533C38.2657 66.8613 38.2798 66.9693 38.2954 67.0758C38.2516 66.7502 38.2406 66.6782 38.2657 66.8598C38.5788 69.1786 38.9044 71.4954 39.2425 73.8101C39.9427 78.6107 40.6732 83.4112 41.434 88.2118C42.0821 92.3131 42.7484 96.4124 43.433 100.51C43.6365 101.716 43.1199 103.097 41.7925 103.398C40.6576 103.656 39.1313 103.053 38.9043 101.757C37.4235 92.9638 36.0387 84.1538 34.7498 75.327C34.0611 70.5979 33.3911 65.8626 32.8463 61.1132C32.6601 59.4945 32.4847 57.8744 32.3767 56.2479C32.3063 55.2054 32.1904 54.047 32.4472 53.0185C32.7305 51.8773 33.6494 50.9835 34.8782 50.9725C35.938 50.9725 37.0823 51.6832 38.009 52.145C41.4857 53.8748 44.2971 56.5579 46.642 59.6151C47.4153 60.6216 46.7986 62.2434 45.7998 62.8273C44.5898 63.5348 43.361 62.9932 42.5877 61.9851L42.5924 61.982Z" fill="#64AF45"/>
<path d="M63.3868 57.3046C64.2415 59.0938 65.079 60.3164 66.3172 61.6032C66.6459 61.946 66.9903 62.2763 67.3457 62.5925C67.5022 62.724 67.6447 62.8539 67.7965 62.9807C67.82 62.9995 68.3663 63.4253 68.0689 63.2014C68.8323 63.7724 69.6405 64.2807 70.4858 64.7214C70.6945 64.8321 70.9074 64.9364 71.1245 65.0345C71.1934 65.0674 71.7976 65.3319 71.4376 65.1817C71.9072 65.3773 72.3925 65.5448 72.8777 65.6967C73.9286 66.0217 75.0008 66.2728 76.0867 66.4481C78.0716 66.7784 80.4808 66.8723 82.6613 66.9631C83.887 67.0147 85.0673 68.0072 85.0094 69.3112C84.9546 70.54 83.9747 71.7141 82.6613 71.6593C77.6881 71.4526 72.6132 71.127 68.1205 68.7727C64.3003 66.7503 61.2254 63.5612 59.3435 59.6699C58.7971 58.5271 59.0304 57.1355 60.1856 56.4577C61.2109 55.8581 62.8468 56.1446 63.3978 57.2999L63.3868 57.3046Z" fill="#6EC44E"/>
<path d="M83.9794 58.4896C83.9794 58.4896 83.8228 63.8745 78.1311 63.9027C72.4394 63.9309 69.7658 62.8179 69.7658 62.8179C69.7658 62.8179 72.6335 66.5341 71.0181 75.327L69.0848 83.4185C69.0848 83.4185 78.7698 86.4945 79.3239 82.4276C80.1066 76.7312 79.7278 76.1066 83.0292 77.2243C83.0339 77.2243 85.7874 67.9164 83.9794 58.4896Z" fill="#E8F7E2"/>
<path d="M70.7895 32.0359L67.9937 32.158C67.9937 32.158 52.1912 12.1491 34.0125 5.46168C22.1736 1.10674 22.4287 2.64396 21.3705 0.281778C20.3123 -2.08041 60.8603 10.5727 70.7895 32.0359Z" fill="#6EC44E"/>
<path d="M58.3855 45.7128C58.3855 45.7128 70.395 62.9557 62.2065 73.9291C54.0181 84.9025 20.9917 91.6635 11.158 87.941C1.32432 84.2185 9.89632 77.1961 14.7975 76.5746C22.5383 75.5947 56.363 57.0901 58.3855 45.7128Z" fill="#B1E065"/>
<path d="M12.2992 77.4325C12.2992 77.4325 6.70137 85.9216 18.592 88.9695C18.592 88.9695 10.225 89.9807 7.11305 85.1029C4.5521 81.0861 12.2992 77.4325 12.2992 77.4325Z" fill="#AAD15E"/>
<path d="M54.6301 64.5007C46.869 87.0111 23.9487 87.9269 25.381 88.5875C33.953 88.2087 47.5969 83.237 47.5969 83.237C47.5969 83.237 69.0895 77.2243 64.6344 60.3821C62.8875 53.7777 59.3388 50.8457 54.6301 64.5007Z" fill="#AAD15E"/>
<path d="M52.3494 42.9326C52.3494 42.9326 44.7228 60.9347 32.2452 64.867C15.624 70.108 9.80708 76.3836 9.27485 78.3873C8.65966 80.7057 32.5473 79.1982 44.4849 71.4808C54.6599 64.903 58.5749 45.2494 52.3494 42.9326Z" fill="#6EC44E"/>
<path d="M74.3993 32.0046C84.5366 39.135 84.9342 48.1438 81.5562 54.9549C78.8308 60.4541 71.3436 61.3245 66.372 60.5622C50.2267 58.0826 34.4853 42.8731 45.4773 29.5438C51.7874 21.889 64.5922 25.1168 74.3993 32.0046Z" fill="#83E264"/>
<path d="M77.1449 55.257C84.8153 49.4416 79.0375 36.1247 79.0234 36.0918C84.5664 42.3707 84.1985 49.5026 81.4372 55.0707C78.7119 60.5684 71.2231 61.4388 66.253 60.6764C58.8206 59.5353 51.4727 55.6938 46.7797 50.5812C51.8296 55.113 68.2301 62.0164 77.1449 55.257Z" fill="#78CE57"/>
<path d="M61.6037 55.3895C57.2455 52.1373 56.0004 46.4346 58.8229 42.652C61.6454 38.8695 67.4665 38.4395 71.8248 41.6917C76.1831 44.9438 77.4281 50.6466 74.6057 54.4292C71.7832 58.2117 65.962 58.6417 61.6037 55.3895Z" fill="white"/>
<path d="M65.8885 54.7723C63.5632 53.0371 62.8991 49.9942 64.4052 47.9758C65.9113 45.9574 69.0173 45.7277 71.3426 47.4629C73.668 49.1981 74.3321 52.241 72.826 54.2594C71.3199 56.2778 68.2139 56.5075 65.8885 54.7723Z" fill="#231F20"/>
<path d="M66.5848 51.2589C65.8399 50.7031 65.6271 49.7284 66.1095 49.0819C66.5919 48.4355 67.5868 48.362 68.3316 48.9178C69.0765 49.4736 69.2893 50.4482 68.8069 51.0947C68.3245 51.7412 67.3296 51.8147 66.5848 51.2589Z" fill="white"/>
<path d="M51.5541 63.3126C52.4088 65.1018 53.2463 66.3244 54.4845 67.6111C54.8133 67.954 55.1576 68.2843 55.513 68.6005C55.6695 68.732 55.812 68.8619 55.9638 68.9887C55.9873 69.0075 56.5336 69.4333 56.2362 69.2094C56.9975 69.7801 57.8037 70.2884 58.6469 70.7294C58.8582 70.8406 59.0711 70.9454 59.2855 71.0425C59.3544 71.0754 59.9586 71.3399 59.5986 71.1897C60.0682 71.3853 60.5535 71.5528 61.0388 71.7047C62.0896 72.0297 63.1619 72.2808 64.2478 72.4561C66.2327 72.7864 68.6418 72.8803 70.8224 72.9711C72.0481 73.0227 73.2284 74.0152 73.1704 75.3192C73.1156 76.548 72.1357 77.7221 70.8224 77.6673C65.8492 77.4606 60.7742 77.135 56.2816 74.7807C52.4614 72.7583 49.3864 69.5692 47.5045 65.6779C46.9582 64.5351 47.1914 63.1435 48.3467 62.4657C49.372 61.8661 51.0078 62.1526 51.5588 63.3079L51.5541 63.3126Z" fill="#6EC44E"/>
<path d="M55.5443 28.8738C55.4783 29 55.3879 29.1118 55.2782 29.2026C55.1685 29.2934 55.0418 29.3614 54.9055 29.4027C54.7692 29.4439 54.6261 29.4576 54.4844 29.4428C54.3428 29.4281 54.2055 29.3852 54.0807 29.3168L53.8693 29.1994C53.3488 28.9151 52.8629 28.5716 52.4214 28.1756C48.965 25.0761 31.929 10.7997 16.1954 6.2162C3.74751 2.5923 4.55212 4.35807 3.25129 2.12895C1.95046 -0.100182 42.8929 7.92875 55.4973 27.8015C55.5979 27.9606 55.6552 28.1433 55.6634 28.3314C55.6717 28.5195 55.6306 28.7065 55.5443 28.8738Z" fill="#6EC44E"/>
<path d="M31.5079 74.9075C31.3671 74.7055 31.2152 74.5146 31.0743 74.3126C31.0743 74.322 31.4375 74.7666 31.1056 74.358L30.7738 73.9479C30.3511 73.4376 29.9159 72.9382 29.4729 72.4467C28.3443 71.1943 27.1703 69.9796 25.9821 68.7836C23.2944 66.0802 20.5206 63.4613 17.7013 60.8987C15.4738 58.8715 13.2259 56.8537 10.881 54.958C10.6994 54.8109 10.5147 54.6669 10.3315 54.5197C9.97303 54.2332 10.8324 54.8923 10.488 54.6387L10.2313 54.4477C10.0372 54.3053 9.78834 54.191 9.60519 54.036C10.4646 54.778 12.0863 54.0626 12.6655 53.197C12.8596 52.9058 12.9441 52.3109 12.9566 52.181C12.9554 52.2517 12.9596 52.3223 12.9692 52.3923C12.988 52.6741 12.8283 51.5987 12.9347 52.1137C13.8317 56.4671 15.383 60.7234 16.7417 64.95C18.9332 71.7548 21.1655 78.5423 23.3054 85.3628C25.0523 90.9278 26.8916 96.5303 28.0985 102.244C28.1909 102.682 28.277 103.122 28.3521 103.564C28.5572 104.769 28.0391 106.15 26.7116 106.452C25.5736 106.71 24.0505 106.106 23.8235 104.811C23.429 102.496 22.8044 100.218 22.1767 97.958C21.2892 94.7552 20.3217 91.5758 19.3356 88.409C17.144 81.3366 14.8226 74.3017 12.5496 67.2527C11.6308 64.4021 10.715 61.5515 9.84469 58.6852C9.32655 56.9758 8.74892 55.2414 8.42645 53.4834C8.25426 52.552 8.14467 51.713 8.60959 50.8363C9.41889 49.3116 11.2629 49.4541 12.4698 50.3088C14.6801 51.8742 16.7088 53.7323 18.7313 55.5278C21.6335 58.1045 24.4768 60.7464 27.2611 63.4534C29.6796 65.8015 32.1137 68.1997 34.2458 70.8218C34.7013 71.3822 35.149 71.9536 35.5623 72.5437C36.287 73.5847 35.7532 75.1517 34.7201 75.7559C33.5508 76.44 32.2343 75.9579 31.5079 74.9137V74.9075Z" fill="#6EC44E"/>
<path d="M42.3982 69.5835C44.9952 70.8515 47.3214 72.755 49.5583 74.5553C51.9862 76.5104 54.3343 78.5721 56.6025 80.712C57.4212 81.4853 58.2352 82.268 59.0116 83.0851C59.5266 83.6267 60.1074 84.2044 60.4455 84.8759C61.4551 86.8843 61.2736 89.4578 61.1483 91.6338C60.8744 96.3691 60.1168 101.087 59.3325 105.76C59.1227 107.012 57.5762 107.71 56.4444 107.399C55.1169 107.034 54.5925 105.766 54.8039 104.511C55.5083 100.317 56.0562 96.8966 56.3786 92.7264C56.49 91.4475 56.5349 90.1637 56.5133 88.8802C56.5007 88.4466 56.4616 88.0193 56.4303 87.5872C56.399 87.1552 56.5508 88.2134 56.46 87.8158C56.4397 87.7265 56.4303 87.6342 56.4131 87.5449C56.3755 87.3602 56.3176 87.1818 56.2753 86.9986C56.1407 86.4335 56.5164 87.5277 56.3364 87.1379C56.3051 87.0706 56.1908 86.9673 56.1798 86.8984C56.2096 87.0863 56.6494 87.4651 56.3144 87.0878C56.1845 86.9454 56.0593 86.7998 55.9278 86.6574C55.2453 85.9201 54.519 85.2172 53.7973 84.5221C51.6788 82.4934 49.4873 80.545 47.2227 78.6769C46.5277 78.104 45.8249 77.5399 45.1142 76.9848C45.5603 77.3338 45.0657 76.9472 44.9968 76.8955C44.8027 76.7473 44.6075 76.6002 44.4113 76.4541C44.1264 76.2454 43.8399 76.0366 43.5519 75.8279C42.4412 75.001 41.2637 74.268 40.0314 73.6364C38.8918 73.0791 38.5834 71.4589 39.1892 70.4226C39.8686 69.2611 41.2571 69.0231 42.4014 69.5804L42.3982 69.5835Z" fill="#6EC44E"/>
<path d="M78.9608 102.737C78.9608 104.597 63.4792 104.597 63.4792 102.737C63.4792 100.877 66.9449 99.3684 71.22 99.3684C75.495 99.3684 78.9608 100.882 78.9608 102.737Z" fill="#64AF45"/>
<path d="M70.9179 106.605C70.9179 108.465 55.4363 108.465 55.4363 106.605C55.4363 104.746 58.902 103.23 63.1771 103.23C67.4521 103.23 70.9179 104.744 70.9179 106.605Z" fill="#6EC44E"/>
<path d="M27.8888 105.655C27.8888 108.424 0.0015583 108.424 0.0015583 105.655C0.0015583 102.886 6.2443 100.646 13.9444 100.646C21.6445 100.646 27.8888 102.884 27.8888 105.655Z" fill="#6EC44E"/>
<path d="M80.9253 63.3126C80.9253 63.3126 81.3464 72.7723 79.947 78.0837C79.947 78.0837 80.6326 76.1066 82.7913 77.229C85.5682 67.4984 83.9794 58.4943 83.9794 58.4943C83.9794 58.4943 83.1372 62.3843 80.9253 63.3126Z" fill="#DBE8D4"/>
<path d="M82.1902 62.3295C82.1902 62.3295 83.7242 72.5813 82.7913 77.2243C84.1422 73.6144 85.8719 66.2242 83.9794 58.4896C83.9794 58.4896 83.0214 61.3245 82.1902 62.3295Z" fill="#E8F7E2"/>
<path d="M82.1902 62.3295C82.1902 62.3295 80.9034 62.6629 80.9253 63.3079H81.7753L82.1902 62.3295Z" fill="#DBE8D4"/>
</g>
<defs>
<clipPath id="clip0_2_3">
<rect width="85" height="108" fill="white" transform="matrix(-1 0 0 1 85 0)"/>
</clipPath>
</defs>
</svg>
