<svg id="Capa_1" enable-background="new 0 0 511.99 511.99" height="512" viewBox="0 0 511.99 511.99" width="512" xmlns="http://www.w3.org/2000/svg"><g><path d="m417.625 511.99h-262.77c-4.142 0-7.5-3.358-7.5-7.5s3.358-7.5 7.5-7.5h262.77c43.76 0 79.36-35.601 79.36-79.36v-323.27c0-43.759-35.601-79.36-79.36-79.36h-323.26c-43.759 0-79.36 35.601-79.36 79.36v323.27c0 43.759 35.601 79.36 79.36 79.36h30.49c4.142 0 7.5 3.358 7.5 7.5s-3.358 7.5-7.5 7.5h-30.49c-52.03 0-94.36-42.33-94.36-94.36v-323.27c0-52.03 42.33-94.36 94.36-94.36h323.26c52.03 0 94.36 42.33 94.36 94.36v323.27c0 52.03-42.33 94.36-94.36 94.36z"/><path d="m417.627 471.989h-323.263c-29.976 0-54.364-24.387-54.364-54.364v-323.262c0-29.976 24.388-54.364 54.364-54.364h323.263c29.976 0 54.363 24.388 54.363 54.364v323.263c0 29.976-24.387 54.363-54.363 54.363zm-323.263-416.99c-21.705 0-39.364 17.659-39.364 39.364v323.263c0 21.705 17.659 39.364 39.364 39.364h323.263c21.705 0 39.363-17.659 39.363-39.364v-323.263c0-21.705-17.658-39.364-39.363-39.364z"/><g><path d="m169.88 414.992c-9.22 0-18.439-3.509-25.458-10.528l-36.891-36.901c-6.799-6.799-10.543-15.838-10.543-25.453s3.744-18.654 10.544-25.453l60.657-60.666-60.657-60.658c-6.8-6.799-10.544-15.84-10.544-25.458s3.744-18.659 10.544-25.458l36.89-36.89c14.037-14.038 36.878-14.038 50.917 0l60.657 60.666 60.656-60.665c14.037-14.038 36.878-14.039 50.917 0l36.891 36.89c6.799 6.799 10.544 15.84 10.544 25.458s-3.745 18.659-10.544 25.458l-9.231 9.23c-2.929 2.93-7.678 2.929-10.606 0-2.929-2.929-2.929-7.678.001-10.606l9.23-9.23c8.188-8.189 8.188-21.514-.001-29.703l-36.891-36.89c-8.188-8.19-21.515-8.188-29.702 0l-65.96 65.969c-1.406 1.407-3.314 2.197-5.304 2.197s-3.897-.791-5.304-2.197l-65.96-65.97c-8.188-8.188-21.513-8.188-29.703 0l-36.89 36.89c-8.189 8.189-8.189 21.514 0 29.703l65.96 65.96c2.929 2.929 2.929 7.677 0 10.606l-65.96 65.97c-8.187 8.187-8.187 21.507 0 29.694l36.891 36.901c8.188 8.188 21.513 8.189 29.703 0l65.959-65.97c1.407-1.407 3.314-2.197 5.304-2.197s3.897.791 5.304 2.197l65.96 65.97c8.189 8.189 21.515 8.188 29.702 0l36.891-36.9c8.187-8.187 8.187-21.507 0-29.694l-65.96-65.97c-2.929-2.929-2.929-7.677 0-10.606l36.3-36.3c2.93-2.929 7.678-2.929 10.607 0s2.929 7.678 0 10.606l-30.997 30.998 60.657 60.667c6.799 6.799 10.544 15.838 10.544 25.453s-3.745 18.654-10.544 25.453l-36.891 36.9c-14.037 14.038-36.878 14.039-50.917 0l-60.656-60.666-60.656 60.666c-7.02 7.017-16.24 10.527-25.46 10.527z"/></g></g></svg>